<svg width="256" height="256" viewBox="0 0 256 256" fill="none" xmlns="http://www.w3.org/2000/svg">
<path d="M128 160C145.673 160 160 145.673 160 128C160 110.327 145.673 96 128 96C110.327 96 96 110.327 96 128C96 145.673 110.327 160 128 160Z" stroke="#4F46E5" stroke-width="12" stroke-linecap="round" stroke-linejoin="round"/>
<path d="M128 160V208" stroke="#4F46E5" stroke-width="12" stroke-linecap="round" stroke-linejoin="round"/>
<path d="M128 96V48" stroke="#4F46E5" stroke-width="12" stroke-linecap="round" stroke-linejoin="round"/>
<path d="M184 128H208" stroke="#4F46E5" stroke-width="12" stroke-linecap="round" stroke-linejoin="round"/>
<path d="M48 128H72" stroke="#4F46E5" stroke-width="12" stroke-linecap="round" stroke-linejoin="round"/>
<path d="M164.38 91.62L184 72" stroke="#4F46E5" stroke-width="12" stroke-linecap="round" stroke-linejoin="round"/>
<path d="M72 184L91.62 164.38" stroke="#4F46E5" stroke-width="12" stroke-linecap="round" stroke-linejoin="round"/>
<path d="M164.38 164.38L184 184" stroke="#4F46E5" stroke-width="12" stroke-linecap="round" stroke-linejoin="round"/>
<path d="M72 72L91.62 91.62" stroke="#4F46E5" stroke-width="12" stroke-linecap="round" stroke-linejoin="round"/>
<path d="M128 48H112" stroke="#4F46E5" stroke-width="12" stroke-linecap="round" stroke-linejoin="round"/>
<path d="M144 48H160" stroke="#4F46E5" stroke-width="12" stroke-linecap="round" stroke-linejoin="round"/>
<path d="M184 72V56" stroke="#4F46E5" stroke-width="12" stroke-linecap="round" stroke-linejoin="round"/>
<path d="M184 88V104" stroke="#4F46E5" stroke-width="12" stroke-linecap="round" stroke-linejoin="round"/>
<path d="M208 128V112" stroke="#4F46E5" stroke-width="12" stroke-linecap="round" stroke-linejoin="round"/>
<path d="M208 144V160" stroke="#4F46E5" stroke-width="12" stroke-linecap="round" stroke-linejoin="round"/>
<path d="M184 184V168" stroke="#4F46E5" stroke-width="12" stroke-linecap="round" stroke-linejoin="round"/>
<path d="M184 200V216" stroke="#4F46E5" stroke-width="12" stroke-linecap="round" stroke-linejoin="round"/>
<path d="M128 208H112" stroke="#4F46E5" stroke-width="12" stroke-linecap="round" stroke-linejoin="round"/>
<path d="M144 208H160" stroke="#4F46E5" stroke-width="12" stroke-linecap="round" stroke-linejoin="round"/>
<path d="M72 184V168" stroke="#4F46E5" stroke-width="12" stroke-linecap="round" stroke-linejoin="round"/>
<path d="M72 200V216" stroke="#4F46E5" stroke-width="12" stroke-linecap="round" stroke-linejoin="round"/>
<path d="M48 128V112" stroke="#4F46E5" stroke-width="12" stroke-linecap="round" stroke-linejoin="round"/>
<path d="M48 144V160" stroke="#4F46E5" stroke-width="12" stroke-linecap="round" stroke-linejoin="round"/>
<path d="M72 72V56" stroke="#4F46E5" stroke-width="12" stroke-linecap="round" stroke-linejoin="round"/>
<path d="M72 88V104" stroke="#4F46E5" stroke-width="12" stroke-linecap="round" a-stroke-linejoin="round"/>
</svg>